# xmcd CD database file
#
# Track frame offsets:
#	150
#	11112
#	22792
#	31152
#	48112
#	56930
#	68960
#	84075
#	93850
#	105582
#
# Disc length: 1596 seconds
#
# Revision: 0
# Processed by: cddbd v1.4PL0 Copyright (c) Steve Scherf et al.
# Submitted via: CDex 1.50beta10
#
DISCID=6c063a0a
DTITLE=Various Artist - Puttin' On The Ritz
DYEAR=1999
DGENRE=Jazz
TTITLE0=Mallet Men - Smoke Gets In Your Eyes
TTITLE1=Julie London - Sway
TTITLE2=Ray Anthony - Peter Gunn Theme
TTITLE3=Martin Denny - Quiet Village
TTITLE4=Terry Snyder - Puttin' On The Ritz
TTITLE5=John Buzon Trio - Caravan
TTITLE6=Peggy Lee - Fever
TTITLE7=Nelson Riddle - The Theme From "Route 66"
TTITLE8=Wayne Newton - Danke Schoen
TTITLE9=Chuy Reyes - Oink, Oink Mambo
EXTD=YEAR: 1999
EXTT0=
EXTT1=
EXTT2=
EXTT3=
EXTT4=
EXTT5=
EXTT6=
EXTT7=
EXTT8=
EXTT9=
PLAYORDER=
